<svg aria-hidden="true" style="position: absolute; width: 0; height: 0; overflow: hidden;" version="1.1" xmlns="http://www.w3.org/2000/svg" xmlns:xlink="http://www.w3.org/1999/xlink">
<defs>

<symbol id="ut-social-pinterest" viewBox="0 0 32 32">
<path d="M0 0v32h32V0C32 0 0 0 0 0zM25.8 12.3c-0.1 1.1-0.2 2.2-0.5 3.3 -0.4 1.4-1.1 2.7-2.1 3.8 -1.2 1.3-2.7 2.1-4.5 2.3 -1.1 0.1-2.2-0.1-3.2-0.7 -0.4-0.3-0.8-0.6-1.1-1 0 0 0 0-0.1-0.1 -0.1 0.4-0.2 0.7-0.3 1.1 -0.3 1-0.5 2-0.8 2.9 -0.3 1.2-1 2.3-1.6 3.4 -0.3 0.4-0.6 0.9-0.9 1.3 -0.1 0.1-0.1 0.1-0.3 0.1 -0.1 0-0.1-0.1-0.2-0.2 -0.1-1.1-0.2-2.2-0.2-3.3 0-1 0.2-2.1 0.5-3.1 0.6-2.3 1.1-4.6 1.6-7 0-0.1 0-0.2 0-0.3 -0.5-1.3-0.6-2.7 0-4.1 0.3-0.7 0.8-1.3 1.5-1.7 0.8-0.4 1.6-0.3 2.3 0.3 0.4 0.3 0.6 0.8 0.6 1.3 0.1 0.7 0 1.4-0.2 2.1 -0.3 1-0.6 2-0.9 3 -0.1 0.3-0.2 0.7-0.2 1 0 1.2 0.8 2.1 2 2.3 1.1 0.1 2-0.3 2.7-1 0.7-0.7 1.2-1.6 1.6-2.6 0.5-1.5 0.8-3.1 0.7-4.7 -0.2-2.4-1.7-4.2-4-4.8 -1.9-0.5-3.8-0.3-5.6 0.6 -1.9 1-3 2.6-3.4 4.7 -0.2 0.9-0.2 1.8 0 2.8 0.1 0.6 0.4 1.1 0.8 1.5 0.2 0.3 0.3 0.6 0.2 0.9 -0.1 0.4-0.2 0.7-0.3 1.1C9.8 18 9.5 18.1 9.1 18c-1-0.4-1.8-1.2-2.3-2.2 -0.5-0.9-0.7-1.9-0.7-3 0-3.3 1.4-5.8 4-7.6 1.4-1 3-1.5 4.6-1.7 1.1-0.1 2.3-0.2 3.4 0 2.9 0.5 5.2 1.9 6.7 4.5C25.6 9.3 25.9 10.8 25.8 12.3z"></path></symbol>

<symbol id="ut-social-weibo" viewBox="0 0 32 32">
<title>Weibo</title>
<path d="M13.8,25.4c-4.5,0.4-8.4-1.6-8.7-4.6c-0.3-3,3.1-5.7,7.7-6.2c4.5-0.4,8.4,1.6,8.7,4.6
        C21.8,22.2,18.3,25,13.8,25.4z M22.9,15.6c-0.4-0.1-0.7-0.2-0.4-0.7c0.4-1.1,0.5-2,0-2.7c-0.9-1.3-3.3-1.2-6.1,0
        c0,0-0.9,0.4-0.7-0.3c0.4-1.4,0.4-2.5-0.3-3.2c-1.5-1.5-5.5,0.1-9,3.5c-2.6,2.6-4.1,5.3-4.1,7.7c0,4.5,5.8,7.3,11.5,7.3
        c7.4,0,12.4-4.3,12.4-7.7C26.2,17.2,24.4,16.1,22.9,15.6L22.9,15.6z"/>
<path d="M27.8,7.3c-1.8-2-4.4-2.7-6.9-2.2l0,0c-0.6,0.1-0.9,0.7-0.8,1.2c0.1,0.6,0.7,0.9,1.2,0.8
        c1.7-0.4,3.6,0.2,4.9,1.6s1.6,3.3,1.1,5l0,0c-0.2,0.5,0.1,1.1,0.7,1.3c0.5,0.2,1.1-0.1,1.3-0.7v0C30.1,12,29.6,9.3,27.8,7.3
        L27.8,7.3z"/>
<path d="M25,9.8c-0.9-1-2.2-1.3-3.3-1.1c-0.5,0.1-0.8,0.6-0.7,1.1c0.1,0.5,0.6,0.8,1.1,0.7l0,0c0.6-0.1,1.2,0.1,1.6,0.5
        c0.4,0.5,0.5,1.1,0.4,1.7l0,0c-0.1,0.5,0.1,1,0.6,1.1c0.5,0.1,1-0.1,1.1-0.6C26.1,12.1,25.9,10.8,25,9.8L25,9.8z"/>
<path d="M14.1,20.1c-0.2,0.3-0.5,0.4-0.8,0.3c-0.3-0.1-0.4-0.4-0.2-0.7c0.2-0.3,0.5-0.4,0.8-0.3
        C14.1,19.5,14.2,19.8,14.1,20.1L14.1,20.1z M12.6,21.9c-0.4,0.7-1.4,1-2.1,0.7c-0.7-0.3-0.9-1.1-0.5-1.8c0.4-0.7,1.3-1,2-0.7
        C12.8,20.4,13.1,21.2,12.6,21.9L12.6,21.9z M14.3,17c-2.1-0.6-4.6,0.5-5.5,2.4c-1,1.9,0,4.1,2.1,4.8c2.3,0.7,4.9-0.4,5.8-2.5
        C17.6,19.7,16.5,17.6,14.3,17L14.3,17z"/>
</symbol>

<symbol id="ut-social-instagram" viewBox="0 0 32 32"><title>Instagram</title><path d="M0 0v32h32V0C32 0 0 0 0 0zM6.3 16.2c0 3.1 0 3.5 0.1 4.7 0.1 1.1 0.2 1.8 0.4 2.2C7 23.7 7.3 24 7.7 24.5c0.4 0.4 0.8 0.7 1.4 0.9 0.4 0.2 1 0.4 2.2 0.4 1.2 0.1 1.6 0.1 4.8 0.1s3.5 0 4.8-0.1c1.1 0 1.8-0.2 2.2-0.4 0.5-0.2 0.9-0.5 1.4-0.9 0.4-0.4 0.7-0.8 0.9-1.3 0.2-0.4 0.4-1 0.4-2.2 0.1-1.2 0.1-1.6 0.1-4.7s0-3.5-0.1-4.7c0-1.1-0.2-1.8-0.4-2.2C25 8.8 24.7 8.4 24.3 8c-0.4-0.4-0.8-0.7-1.4-0.9 -0.4-0.2-1-0.3-2.2-0.4 -1.2-0.1-1.6-0.1-4.8-0.1 -3.1 0-3.5 0-4.8 0.1C10.1 6.8 9.5 7 9 7.1 8.5 7.3 8.1 7.6 7.7 8 7.3 8.4 7 8.8 6.8 9.3c-0.2 0.4-0.4 1-0.4 2.2C6.3 12.7 6.3 13.1 6.3 16.2zM4.3 21c-0.1-1.2-0.1-1.6-0.1-4.8s0-3.6 0.1-4.8c0.1-1.2 0.3-2.1 0.5-2.8 0.3-0.8 0.7-1.4 1.4-2.1 0.7-0.6 1.3-1 2.1-1.3C9 4.9 9.9 4.7 11.1 4.6c1.3-0.1 1.7-0.1 4.9-0.1s3.6 0 4.9 0.1c1.3 0.1 2.1 0.3 2.9 0.5 0.8 0.3 1.4 0.7 2.1 1.3 0.7 0.6 1.1 1.3 1.4 2.1 0.3 0.7 0.5 1.6 0.5 2.8 0.1 1.2 0.1 1.6 0.1 4.8s0 3.6-0.1 4.8c-0.1 1.2-0.3 2.1-0.5 2.8 -0.3 0.8-0.7 1.4-1.4 2.1 -0.7 0.7-1.3 1-2.1 1.4 -0.7 0.3-1.6 0.5-2.9 0.5 -1.3 0.1-1.7 0.1-4.9 0.1s-3.6 0-4.9-0.1c-1.3-0.1-2.1-0.3-2.9-0.5C7.5 27 6.8 26.6 6.2 26c-0.7-0.6-1.1-1.3-1.4-2.1C4.5 23.1 4.3 22.3 4.3 21L4.3 21zM12.1 16.8c0 2.2 1.7 3.9 3.9 3.9s3.9-1.8 3.9-3.9 -1.7-3.9-3.9-3.9S12.1 14.6 12.1 16.8zM16 10.8c3.3 0 6 2.7 6 6.1s-2.7 6.1-6 6.1 -6-2.7-6-6.1S12.7 10.8 16 10.8zM21.6 8.8c0.8 0 1.4 0.6 1.4 1.4s-0.6 1.4-1.4 1.4 -1.4-0.6-1.4-1.4S20.8 8.8 21.6 8.8z"/></symbol>

<symbol id="ut-social-linkedin" viewBox="0 0 32 32"><title>Linkedin</title><path d="M0 0v32h32V0C32 0 0 0 0 0zM10.4 25.2H6.2V11.6h4.2V25.2zM8.3 9.9C7 9.9 6.1 9 6.1 7.8c0-1.2 0.9-2.1 2.3-2.1s2.2 0.9 2.2 2.1C10.6 9 9.7 9.9 8.3 9.9L8.3 9.9zM25.9 25.2h-4.2v-7.6c0-1.8-0.6-3-2.1-3 -1.2 0-1.9 0.8-2.2 1.6 -0.1 0.3-0.1 0.7-0.1 1.1v7.9H13v-9.3c0-1.7-0.1-3.1-0.1-4.4h3.7l0.2 1.9h0.1c0.6-0.9 1.9-2.2 4.2-2.2 2.8 0 4.9 1.9 4.9 5.9L25.9 25.2 25.9 25.2z"/></symbol>

<symbol id="ut-social-flickr" viewBox="0 0 32 32"><title >flickr</title><path d="M0 0v32h32V0C32 0 0 0 0 0zM9.1 21.9c-3.3 0-5.9-2.6-5.9-5.9S5.8 10 9.1 10c3.3 0 5.9 2.6 5.9 5.9S12.4 21.9 9.1 21.9zM22.4 21.9c-3.3 0-5.9-2.6-5.9-5.9s2.6-5.9 5.9-5.9 5.9 2.6 5.9 5.9S25.7 21.9 22.4 21.9z"/></symbol>

<symbol id="ut-social-reddit" viewBox="0 0 32 32"><title>Reddit</title><path d="M20.2 15.9c-1.1 0-1.9 0.9-1.9 2 0 1.1 0.8 1.9 1.9 1.9 1.1 0 2-0.8 2-1.9C22.2 16.8 21.3 15.9 20.2 15.9zM19.8 22.5c-0.4 0.3-0.8 0.5-1.3 0.7 -1.2 0.5-2.4 0.5-3.6 0.4 -1-0.1-2-0.4-2.8-1.1 -0.3-0.2-0.5-0.2-0.8 0 -0.2 0.2-0.2 0.5 0.1 0.8 0.2 0.2 0.4 0.3 0.6 0.5 1.2 0.7 2.5 0.9 3.8 1 0.6-0.1 1.1-0.1 1.7-0.2 1.1-0.2 2.1-0.5 2.9-1.3 0.3-0.2 0.3-0.5 0.1-0.8C20.4 22.3 20.1 22.3 19.8 22.5L19.8 22.5zM14 17.8c0-1.1-0.9-1.9-2-1.9 -1.1 0-1.9 0.9-1.9 2 0 1.1 0.8 1.9 1.9 1.9C13.1 19.8 14 18.9 14 17.8L14 17.8zM0 0v32h32V0C32 0 0 0 0 0zM29.9 15.8c0 1-0.5 1.8-1.3 2.5 -0.2 0.1-0.2 0.2-0.2 0.5 0.2 1.8-0.4 3.4-1.6 4.8 -1.3 1.6-3 2.6-4.9 3.2 -4.6 1.5-9.1 1.4-13.4-0.7 -1.6-0.8-3-1.9-4-3.4 -0.8-1.2-1.2-2.6-1-4.1 0-0.2-0.1-0.3-0.2-0.4 -1-0.9-1.4-1.9-1.1-3.2 0.3-1.3 1.1-2.1 2.4-2.4 0.9-0.2 1.8 0 2.6 0.5 0.1 0.1 0.3 0.1 0.3 0.1 2.3-1.4 4.8-2 7.4-2.1 0.5 0 0.8-0.2 0.9-0.7 0.6-1.8 1.2-3.6 1.9-5.3 0-0.1 0.1-0.2 0.1-0.4 1.8 0.4 3.6 0.9 5.4 1.3 0.4-0.8 0.9-1.3 1.7-1.5 1.4-0.4 2.9 0.5 3.2 2 0.3 1.4-0.6 2.9-2.1 3.1 -1.4 0.3-2.8-0.8-3-2.2C23 7 23 6.9 22.7 6.8c-1.4-0.3-2.8-0.6-4.2-1 -0.6 1.7-1.2 3.4-1.8 5.1 0.4 0 0.9 0.1 1.3 0.1 2.3 0.2 4.4 0.9 6.4 2.1 0.2 0.1 0.3 0 0.4-0.1 1.1-0.7 2.2-0.8 3.4-0.2C29.3 13.4 29.9 14.5 29.9 15.8L29.9 15.8z"/></symbol>

<symbol id="ut-social-tumblr" viewBox="0 0 32 32"><title>tumblr</title><path d="M0 0v32h32V0C32 0 0 0 0 0zM22.2 26.8c-1.4 0.4-2.7 0.6-4.2 0.6 -1.1-0.1-2.2-0.2-3.3-0.7 -1.6-0.7-2.5-1.9-2.8-3.6 -0.1-0.3-0.1-0.6-0.1-0.9 0-1.4 0-2.7 0-4 0-1.5 0-3 0-4.6 -0.8 0-1.6 0-2.3 0 0-1.4 0-2.7 0-4 0.7 0.1 1.4-0.2 2-0.5 1.2-0.7 1.9-1.9 2.2-3.3 0.1-0.3 0.1-0.6 0.2-0.9 0-0.2 0.1-0.2 0.3-0.2 0.9 0 1.8 0 2.8 0 0.2 0 0.2 0.2 0.2 0.3 0 1.4 0 2.8 0 4.2 0 0.1 0 0.3 0 0.4 1.7 0 3.4 0 5.1 0 0 1.4 0 2.7 0 4 -1.7 0-3.4 0-5 0 0 0.2 0 0.3 0 0.4 0 1.9 0 3.8 0 5.7 0 0.6 0.1 1.2 0.2 1.8 0 0.2 0.2 0.4 0.3 0.6 0.7 0.7 1.7 0.8 2.6 0.6 0.6-0.2 1.2-0.3 1.8-0.5 0.1 0 0.2-0.1 0.3-0.1 0 0.1 0 0.2 0 0.3 0 1.4 0 2.7 0 4C22.5 26.7 22.4 26.8 22.2 26.8L22.2 26.8z"/></symbol>

<symbol id="ut-social-twitter" viewBox="0 0 32 32"><title>Twitter</title><path d="M0 0v32h32V0C32 0 0 0 0 0zM25.6 10.8c0 0.2 0 0.4 0 0.6 0 6.6-5 14.2-14.2 14.2 -2.8 0-5.5-0.8-7.7-2.3 0.4 0 0.8 0.1 1.2 0.1 2.3 0 4.5-0.8 6.2-2.2 -2.2 0-4-1.5-4.7-3.5 0.3 0.1 0.6 0.1 0.9 0.1 0.5 0 0.9-0.1 1.3-0.2 -2.3-0.5-4-2.5-4-4.9 0 0 0 0 0-0.1 0.7 0.4 1.4 0.6 2.3 0.6C5.6 12.5 4.7 11 4.7 9.2c0-0.9 0.3-1.8 0.7-2.5 2.5 3 6.2 5 10.3 5.3 -0.1-0.4-0.1-0.8-0.1-1.1 0-2.8 2.2-5 5-5 1.4 0 2.8 0.6 3.7 1.6 1.1-0.2 2.2-0.6 3.2-1.2 -0.4 1.2-1.2 2.2-2.2 2.8 1-0.1 2-0.4 2.9-0.8C27.4 9.2 26.5 10 25.6 10.8L25.6 10.8z"/></symbol>

<symbol id="ut-social-vimeo" viewBox="0 0 32 32"><title id="vimeo-title">Vimeo</title><path d="M31.7 0H0v32h32V0c0 0-0.1 0-3 0C29 0 31.7 0 31.7 0zM26.9 10.6c-0.1 2.2-1.7 5.3-4.7 9.2 -3.1 4.1-5.8 6.1-8 6.1 -1.3 0-2.5-1.2-3.4-3.7 -0.6-2.3-1.2-4.6-1.9-6.8 -0.7-2.5-1.4-3.7-2.2-3.7 -0.2 0-0.8 0.4-1.8 1.1l-1.1-1.4c1.1-1 2.3-2 3.4-3 1.5-1.3 2.7-2 3.4-2.1 1.8-0.2 2.9 1.1 3.3 3.7 0.4 2.8 0.8 4.6 0.9 5.3 0.5 2.4 1.1 3.5 1.7 3.5 0.5 0 1.2-0.8 2.2-2.3 1-1.5 1.5-2.7 1.6-3.5 0.1-1.3-0.4-2-1.6-2 -0.6 0-1.1 0.1-1.7 0.4 1.1-3.7 3.3-5.5 6.5-5.4C25.9 6.1 27.1 7.6 26.9 10.6L26.9 10.6 26.9 10.6z"/></symbol>

<symbol id="ut-social-youtube" viewBox="0 0 32 32"><title>Youtube</title><path d="M0 0v32h32V0C32 0 0 0 0 0zM26.6 14.7v1.8c0 2-0.2 3.9-0.2 3.9s-0.2 1.7-0.9 2.4c-0.8 1-1.7 1-2.1 1 -3 0.2-7.5 0.2-7.5 0.2s-5.6-0.1-7.3-0.2c-0.5-0.1-1.6-0.1-2.4-1 -0.6-0.7-0.8-2.4-0.8-2.4s-0.2-2-0.2-3.9v-1.8c0-2 0.2-3.9 0.2-3.9s0.2-1.7 0.8-2.4c0.8-1 1.7-1 2.1-1 3-0.2 7.5-0.2 7.5-0.2h0c0 0 4.5 0 7.5 0.2 0.4 0.1 1.3 0.1 2.1 1 0.6 0.7 0.9 2.4 0.9 2.4S26.6 12.7 26.6 14.7L26.6 14.7zM13.7 18.7l5.8-3.4 -5.8-3.4V18.7L13.7 18.7z"/></symbol>

<symbol id="ut-social-facebook" viewBox="0 0 32 32"><title>Facebook</title><path d="M32 0H0v32h15.3l0-12h-3.7v-5.3H15v-4.6c0-2.2 0.7-3.1 0.7-3.1 1.5-2.9 3.9-3.6 7-3.6 3.1 0 5.6 1 5.6 1l-0.9 5.3c-1.5-0.8-3.8-0.5-3.8-0.5 -1.7 0.3-1.7 1.9-1.7 1.9v3.7h5.7L27.1 20h-5.3v12H32C32 32 32 0 32 0z"/></symbol>

<symbol id="ut-social-medium" viewBox="0 0 32 32"><title>medium</title><path d="M0 0v32h32v-32zM26.584 7.581l-1.716 1.645c-0.121 0.092-0.198 0.237-0.198 0.399 0 0.030 0.003 0.059 0.007 0.087l-0-0.003v12.089c-0.004 0.025-0.007 0.053-0.007 0.083 0 0.162 0.077 0.306 0.196 0.398l0.001 0.001 1.676 1.645v0.361h-8.429v-0.36l1.736-1.687c0.171-0.171 0.171-0.22 0.171-0.48v-9.773l-4.827 12.26h-0.653l-5.621-12.26v8.217c-0.007 0.046-0.010 0.099-0.010 0.152 0 0.307 0.122 0.586 0.321 0.791l-0-0 2.259 2.739v0.361h-6.403v-0.36l2.26-2.74c0.189-0.196 0.306-0.464 0.306-0.759 0-0.065-0.006-0.129-0.017-0.19l0.001 0.007v-9.501c0.003-0.025 0.004-0.055 0.004-0.085 0-0.245-0.106-0.465-0.274-0.617l-0.001-0.001-2.008-2.419v-0.36h6.232l4.817 10.564 4.235-10.565h5.941z"></path></symbol>

<symbol id="ut-social-googleplus" viewBox="0 0 32 32"><title>Google Plus</title><path d="M10.2 25.9c-0.9-0.3-1.8-0.4-2.8-0.5 -3.3 0-6.2 1.5-7.4 3.7V32h15.1c0-0.1 0-0.3 0-0.4 0-0.4 0-0.8-0.1-1.2C14.5 28.5 12.6 27.5 10.2 25.9L10.2 25.9zM12.1 11.3c-0.5-3.8-3-7-5.9-7.1C3.2 4.2 1.3 7.1 1.8 11c0.5 3.8 3.3 6.5 6.2 6.6C10.9 17.7 12.6 15.2 12.1 11.3zM0 17v8.7c1.7-0.9 3.7-1.5 6-1.5 0.7 0 1.3 0 2 0 -0.9-0.8-1.6-1.6-1.6-2.8 0-0.8 0.2-1.5 0.6-2.1 -0.3 0-0.7 0-1.1 0C3.4 19.2 1.4 18.4 0 17L0 17zM32 8V0H0v5.8c1.9-1.9 4.7-3.2 7.8-3.2 2.8 0 10.8 0 10.8 0l-2.4 2.5h-2.8c2 1.2 3.1 3.5 3.1 6.1 0 2.4-1.3 4.3-3.2 5.8 -1.8 1.4-2.2 2-2.2 3.2 0 1 2.2 2.6 3.2 3.3 3.5 2.6 4.2 4.3 4.2 7.6 0 0.3 0 0.6-0.1 0.9H32V10.5h-5v5h-2.5v-5h-5V8h5V3H27v5L32 8 32 8z"/></symbol>

<symbol id="ut-social-newsletter" viewBox="0 0 32 32"><path d="M26.666 0h-21.332c-2.934 0-5.334 2.4-5.334 5.333v21.333c0 2.934 2.4 5.334 5.334 5.334h21.332c2.936 0 5.334-2.4 5.334-5.334v-21.333c0-2.934-2.398-5.333-5.334-5.333zM8 8h16c0.286 0 0.563 0.061 0.817 0.177l-8.817 10.286-8.817-10.287c0.254-0.116 0.531-0.177 0.817-0.177zM6 22v-12c0-0.042 0.002-0.084 0.004-0.125l5.864 6.842-5.8 5.8c-0.045-0.167-0.069-0.34-0.069-0.517zM24 24h-16c-0.177 0-0.35-0.024-0.517-0.069l5.691-5.691 2.826 3.297 2.826-3.297 5.691 5.691c-0.167 0.045-0.34 0.069-0.517 0.069zM26 22c0 0.177-0.024 0.35-0.069 0.517l-5.8-5.8 5.864-6.842c0.003 0.041 0.004 0.083 0.004 0.125v12z"></path></symbol>

<symbol id="ut-social-pdf" viewBox="0 0 32 32">
<path d="M26.313 18.421c-0.427-0.42-1.372-0.643-2.812-0.662-0.974-0.011-2.147 0.075-3.38 0.248-0.552-0.319-1.122-0.665-1.568-1.083-1.202-1.122-2.205-2.68-2.831-4.394 0.041-0.16 0.075-0.301 0.108-0.444 0 0 0.677-3.846 0.498-5.146-0.025-0.178-0.040-0.23-0.088-0.369l-0.059-0.151c-0.184-0.425-0.545-0.875-1.111-0.85l-0.341-0.011c-0.631 0-1.146 0.323-1.281 0.805-0.411 1.514 0.013 3.778 0.781 6.711l-0.197 0.478c-0.55 1.34-1.238 2.689-1.846 3.88l-0.079 0.155c-0.639 1.251-1.22 2.313-1.745 3.213l-0.543 0.287c-0.040 0.021-0.97 0.513-1.188 0.645-1.852 1.106-3.079 2.361-3.282 3.357-0.065 0.318-0.017 0.725 0.313 0.913l0.525 0.264c0.228 0.114 0.468 0.172 0.714 0.172 1.319 0 2.85-1.643 4.959-5.324 2.435-0.793 5.208-1.452 7.638-1.815 1.852 1.043 4.129 1.767 5.567 1.767 0.255 0 0.475-0.024 0.654-0.072 0.276-0.073 0.508-0.23 0.65-0.444 0.279-0.42 0.335-0.998 0.26-1.59-0.023-0.176-0.163-0.393-0.315-0.541zM6.614 25.439c0.241-0.658 1.192-1.958 2.6-3.111 0.088-0.072 0.306-0.276 0.506-0.466-1.472 2.348-2.458 3.283-3.106 3.577zM14.951 6.24c0.424 0 0.665 1.069 0.685 2.070s-0.214 1.705-0.505 2.225c-0.241-0.77-0.357-1.984-0.357-2.778 0 0-0.018-1.517 0.177-1.517v0zM12.464 19.922c0.295-0.529 0.603-1.086 0.917-1.677 0.765-1.447 1.249-2.58 1.609-3.511 0.716 1.303 1.608 2.41 2.656 3.297 0.131 0.111 0.269 0.222 0.415 0.333-2.132 0.422-3.974 0.935-5.596 1.558v0zM25.903 19.802c-0.13 0.081-0.502 0.128-0.741 0.128-0.772 0-1.727-0.353-3.066-0.927 0.515-0.038 0.986-0.057 1.409-0.057 0.774 0 1.004-0.003 1.761 0.19s0.767 0.585 0.637 0.667v0z"></path>
<path d="M28.681 7.159c-0.694-0.947-1.662-2.053-2.724-3.116s-2.169-2.030-3.116-2.724c-1.612-1.182-2.393-1.319-2.841-1.319h-15.5c-1.378 0-2.5 1.121-2.5 2.5v27c0 1.378 1.121 2.5 2.5 2.5h23c1.378 0 2.5-1.122 2.5-2.5v-19.5c0-0.448-0.137-1.23-1.319-2.841v0zM24.543 5.457c0.959 0.959 1.712 1.825 2.268 2.543h-4.811v-4.811c0.718 0.556 1.584 1.309 2.543 2.268v0zM28 29.5c0 0.271-0.229 0.5-0.5 0.5h-23c-0.271 0-0.5-0.229-0.5-0.5v-27c0-0.271 0.229-0.5 0.5-0.5 0 0 15.499-0 15.5 0v7c0 0.552 0.448 1 1 1h7v19.5z"></path>
</symbol>
<symbol id="ut-social-excel" viewBox="0 0 32 32">
<path d="M23.22 12h-4.228l-2.992 4.407-2.992-4.407h-4.228l5.068 7.577-5.718 8.423h7.87v-2.862h-1.567l1.567-2.344 3.481 5.205h4.389l-5.718-8.423 5.068-7.577z"></path>
<path d="M28.681 7.159c-0.694-0.947-1.662-2.053-2.724-3.116s-2.169-2.030-3.116-2.724c-1.612-1.182-2.393-1.319-2.841-1.319h-15.5c-1.378 0-2.5 1.121-2.5 2.5v27c0 1.378 1.121 2.5 2.5 2.5h23c1.378 0 2.5-1.122 2.5-2.5v-19.5c0-0.448-0.137-1.23-1.319-2.841v0zM24.543 5.457c0.959 0.959 1.712 1.825 2.268 2.543h-4.811v-4.811c0.718 0.556 1.584 1.309 2.543 2.268v0zM28 29.5c0 0.271-0.229 0.5-0.5 0.5h-23c-0.271 0-0.5-0.229-0.5-0.5v-27c0-0.271 0.229-0.5 0.5-0.5 0 0 15.499-0 15.5 0v7c0 0.552 0.448 1 1 1h7v19.5z"></path>
</symbol>
<symbol id="icon-calendar" viewBox="0 0 32 32">
<path d="M10 12h4v4h-4zM16 12h4v4h-4zM22 12h4v4h-4zM4 24h4v4h-4zM10 24h4v4h-4zM16 24h4v4h-4zM10 18h4v4h-4zM16 18h4v4h-4zM22 18h4v4h-4zM4 18h4v4h-4zM26 0v2h-4v-2h-14v2h-4v-2h-4v32h30v-32h-4zM28 30h-26v-22h26v22z"></path>
</symbol>
</defs>
</svg>

