<svg id="Layer_1" data-name="Layer 1" xmlns="http://www.w3.org/2000/svg" viewBox="0 0 465.03 75.46"><defs><style>.cls-1{fill:#bf5700;}.cls-2{fill:#333f48;}</style></defs><polygon class="cls-1" points="20.93 18.04 20.97 18.04 20.97 18.02 20.93 18.02 20.93 18.04"/><path class="cls-1" d="M26.38,13.5a22.55,22.55,0,0,0-3.19-.34,5.86,5.86,0,0,0-1.39.15L21.57,7v-1a4.29,4.29,0,0,1,1.69-.28,21.42,21.42,0,0,1,3,.31c1,.14,1.92.28,2.92.34l.27,7.6c-1-.06-2.05-.22-3.05-.37Zm-10.86,0c-1,.16-2,.31-3,.37l.27-7.6c1-.06,2-.2,2.92-.34a21.42,21.42,0,0,1,3-.31,4.24,4.24,0,0,1,1.68.28V7L20.1,13.3a5.8,5.8,0,0,0-1.39-.15,21.39,21.39,0,0,0-3.19.35ZM31.68,9V7.56h-.89V5.1h-.6a26.17,26.17,0,0,1-3.77-.37,23.19,23.19,0,0,0-3.15-.32A5.32,5.32,0,0,0,21,4.85a5.32,5.32,0,0,0-2.31-.44,23.17,23.17,0,0,0-3.16.32,26.17,26.17,0,0,1-3.77.37h-.6V7.57h-.89V9h.89v2h-.88v1.45h.88v2.68h.6a26.06,26.06,0,0,0,4-.41,20.76,20.76,0,0,1,3-.33,3.53,3.53,0,0,1,1.66.32h1.16a3.63,3.63,0,0,1,1.66-.32,21,21,0,0,1,3,.33,26.06,26.06,0,0,0,4,.41h.6V12.43h.88V11h-.88V9h.89Z"/><path class="cls-1" d="M15.69,7l-.18,0c-.57.08-1.14.17-1.72.23l0,1c.64-.07,1.27-.16,1.9-.25h0V7Z"/><path class="cls-1" d="M16.41,6.91v1a13.19,13.19,0,0,1,2.78-.18l0-1a14.54,14.54,0,0,0-2.81.17Z"/><path class="cls-1" d="M15.69,11.42l-.18,0c-.62.09-1.25.18-1.88.25l0,1c.7-.07,1.38-.17,2.06-.27h0v-1Z"/><path class="cls-1" d="M16.41,11.32v1A14.74,14.74,0,0,1,19,12.1l0-1a14.52,14.52,0,0,0-2.65.18Z"/><path class="cls-1" d="M15.54,9.24v1l.11,0a17.13,17.13,0,0,1,3.46-.29l0-1a18.52,18.52,0,0,0-3.6.3Z"/><path class="cls-1" d="M14.82,9.34l-1.11.14,0,1,1.14-.14v-1Z"/><path class="cls-1" d="M25.05,6.85a13,13,0,0,0-2.38-.11l0,1A11.29,11.29,0,0,1,25,7.82v-1Z"/><path class="cls-1" d="M28.11,7.27,26.39,7,25.77,7v1l.48.07c.62.09,1.25.18,1.9.25l0-1Z"/><path class="cls-1" d="M24.85,9A12.61,12.61,0,0,0,22.75,9l0,1a11.43,11.43,0,0,1,2.06.1V9Z"/><path class="cls-1" d="M28.19,9.49c-.61-.07-1.21-.16-1.8-.24l-.82-.12v1l.68.1c.65.1,1.31.19,2,.26l0-1Z"/><path class="cls-1" d="M26.29,12.41c.66.1,1.33.19,2,.26l0-1c-.64-.07-1.26-.16-1.88-.25H26.3v1Z"/><path class="cls-1" d="M25.57,11.33a15.54,15.54,0,0,0-2.74-.19l0,1a14.92,14.92,0,0,1,2.71.2v-1Z"/><path class="cls-1" d="M19.7,26.88,21,23.75l1.25,3.13,3.37.22L23,29.26l.83,3.27L21,30.73l-2.86,1.8.83-3.27-2.6-2.16,3.38-.22Zm-7.64-1.11h0l5.45,4-2.1,6.45,0,0h0l5.49-4,5.49,4h0s0,0,0-.06l-2.09-6.43,5.44-4h0a0,0,0,0,0,0-.06s0,0-.06,0H23.07L21,19.28h0a.05.05,0,0,0-.1,0h0l-2.08,6.4H12.09a0,0,0,0,0,0,.09Z"/><path class="cls-1" d="M34.46,33.86A3.64,3.64,0,0,1,32.63,35a3.6,3.6,0,0,1,.9-1.93,3.68,3.68,0,0,1,1.83-1.09,3.46,3.46,0,0,1-.9,1.93Zm-2.63-4.23a3.65,3.65,0,0,1,.36-2.11,3.66,3.66,0,0,1,.89,1.94,3.54,3.54,0,0,1-.36,2.1,3.66,3.66,0,0,1-.89-1.93Zm1.46-5.51A3.65,3.65,0,0,1,33.52,22a3.66,3.66,0,0,1,1,1.89A3.57,3.57,0,0,1,34.29,26a3.74,3.74,0,0,1-1-1.89Zm3.48,1.6a3.62,3.62,0,0,1-2.05,3.53,3.6,3.6,0,0,1,.48-2.08,3.66,3.66,0,0,1,1.57-1.45ZM31.43,39.41a3.66,3.66,0,0,1-2,.69,3.63,3.63,0,0,1,1.28-1.71,3.59,3.59,0,0,1,2-.69,3.51,3.51,0,0,1-1.28,1.71Zm-1.7-4.69a3.63,3.63,0,0,1,.79-2A3.67,3.67,0,0,1,31,34.81a3.63,3.63,0,0,1-.79,2,3.56,3.56,0,0,1-.47-2.08Zm-1.9,4.91a3.66,3.66,0,0,1-1.18,1.78,3.68,3.68,0,0,1,0-2.13A3.62,3.62,0,0,1,27.8,37.5a3.52,3.52,0,0,1,0,2.13Zm1.1,3.18a3.62,3.62,0,0,1-1.61,1.41,3.53,3.53,0,0,1-1.47.31h0a3.49,3.49,0,0,1-.65-.06,3.62,3.62,0,0,1,1.61-1.41,3.68,3.68,0,0,1,2.12-.25Zm-6.29.29a3.6,3.6,0,0,1,1.52-1.5,3.65,3.65,0,0,1-1.94,3.59,3.79,3.79,0,0,1,.42-2.09Zm-8.13,1.12a3.62,3.62,0,0,1-1.61-1.41,3.6,3.6,0,0,1,2.12.26,3.67,3.67,0,0,1,1.61,1.41,3.75,3.75,0,0,1-2.12-.26ZM14,39.63a3.52,3.52,0,0,1,0-2.13,3.61,3.61,0,0,1,1.15,3.91A3.53,3.53,0,0,1,14,39.63Zm3.66,2a3.62,3.62,0,0,1,1.93,3.6,3.72,3.72,0,0,1-1.52-1.5,3.78,3.78,0,0,1-.41-2.1Zm-7.27-2.19A3.57,3.57,0,0,1,9.11,37.7a3.62,3.62,0,0,1,3.3,2.4,3.61,3.61,0,0,1-2-.69Zm.92-6.67a3.67,3.67,0,0,1,.79,2,3.59,3.59,0,0,1-.47,2.08,3.63,3.63,0,0,1-.79-2,3.67,3.67,0,0,1,.47-2.08ZM7.36,33.86a3.63,3.63,0,0,1-.9-1.94,3.62,3.62,0,0,1,2.73,3,3.55,3.55,0,0,1-1.83-1.08Zm-.25-4.61A3.6,3.6,0,0,1,5.54,27.8a3.54,3.54,0,0,1-.48-2.08,3.6,3.6,0,0,1,2.05,3.53Zm.2-5.37a3.63,3.63,0,0,1,1-1.88,3.58,3.58,0,0,1,.23,2.12,3.7,3.7,0,0,1-1,1.89,3.62,3.62,0,0,1-.23-2.13Zm1.44,5.58a3.66,3.66,0,0,1,.89-1.94,3.62,3.62,0,0,1-.53,4.05,3.65,3.65,0,0,1-.36-2.11Zm25.72.91a4.63,4.63,0,0,0,2.65-2.08A4.56,4.56,0,0,0,37.63,25l-.11-.5-.49.15a4.52,4.52,0,0,0-1.54.8,4.47,4.47,0,0,0,0-1.71,4.57,4.57,0,0,0-1.81-2.85l-.42-.3L33,21a4.6,4.6,0,0,0,1.18,6.16,4.69,4.69,0,0,0-.35,1.23,4.56,4.56,0,0,0-1.39-2L32,26.06l-.3.42a4.59,4.59,0,0,0-.82,3.27,4.54,4.54,0,0,0,1.64,3h0a4.38,4.38,0,0,0-.62,1.17,4.56,4.56,0,0,0-1-2.22l-.32-.41-.38.35a4.59,4.59,0,0,0-.49,6.25l0,0a4.4,4.4,0,0,0-.85,1,4.65,4.65,0,0,0-.47-2.37l-.23-.46-.44.26a4.59,4.59,0,0,0-1.78,6v0a4.38,4.38,0,0,0-1,.82,4.62,4.62,0,0,0,0-2.42l-.13-.5-.49.16a4.59,4.59,0,0,0-3,5.42l-.46.32c-.16-.11-.32-.21-.46-.32a4.56,4.56,0,0,0-.42-3.24,4.63,4.63,0,0,0-2.58-2.18L17,40.27l-.13.5a4.62,4.62,0,0,0,0,2.42,4.82,4.82,0,0,0-1-.82v0a4.59,4.59,0,0,0-1.78-6l-.44-.26-.23.46a4.55,4.55,0,0,0-.47,2.37,4.61,4.61,0,0,0-.85-1l0,0a4.6,4.6,0,0,0-.49-6.26l-.38-.35-.32.41a4.65,4.65,0,0,0-1,2.22,4.69,4.69,0,0,0-.62-1.17h0A4.67,4.67,0,0,0,11,29.74a4.59,4.59,0,0,0-.82-3.27l-.3-.42-.4.33a4.54,4.54,0,0,0-1.39,2,4.43,4.43,0,0,0-.35-1.23A4.6,4.6,0,0,0,8.9,21l-.27-.44-.42.3A4.57,4.57,0,0,0,6.4,23.67a4.68,4.68,0,0,0,0,1.71,4.62,4.62,0,0,0-1.54-.8l-.49-.15-.11.5a4.58,4.58,0,0,0,3.16,5.41l.44.13a4.31,4.31,0,0,0,.27,1.07A4.48,4.48,0,0,0,6,30.84l-.51,0v.52A4.59,4.59,0,0,0,9.73,36l.45,0a4.53,4.53,0,0,0,.48,1,4.54,4.54,0,0,0-1.6-.29,3.69,3.69,0,0,0-.58,0L8,36.82l.1.5a4.65,4.65,0,0,0,1.81,2.85,4.55,4.55,0,0,0,2.69.87,3.64,3.64,0,0,0,.57,0l.45-.06a4.43,4.43,0,0,0,.68.87,4.67,4.67,0,0,0-2.19.2l-.49.17.2.47A4.6,4.6,0,0,0,16,45.46a4.88,4.88,0,0,0,1.51-.25l.36-.12a26.81,26.81,0,0,0,2.21,1.66c-.43.28-.89.59-1.42.92l.91.56,1.38-.9c.41.28.87.57,1.38.9l.91-.56-1.42-.92A26.81,26.81,0,0,0,24,45.09l.36.12a4.56,4.56,0,0,0,1.51.25h0a4.56,4.56,0,0,0,4.22-2.8l.2-.47L29.84,42a4.54,4.54,0,0,0-2.19-.2,4.49,4.49,0,0,0,.68-.88l.45.06a5.46,5.46,0,0,0,.57,0h0a4.57,4.57,0,0,0,4.5-3.72l.1-.5-.51-.07a5.65,5.65,0,0,0-.58,0,4.58,4.58,0,0,0-1.6.29,4.56,4.56,0,0,0,.49-1h.41a4.59,4.59,0,0,0,4.21-4.65v-.52l-.51,0a4.48,4.48,0,0,0-2.08.7A5.09,5.09,0,0,0,34,30.5l.43-.13Z"/><path class="cls-1" d="M34.59,40.55a24.6,24.6,0,0,1-3.46,4.06,37.14,37.14,0,0,1-10.19,6.51,37.14,37.14,0,0,1-10.19-6.51,26,26,0,0,1-3.46-4.06c-4.74-6.95-5.37-15-5.37-21.26h0l19-1.06,19,1.06c0,6.26-.62,14.32-5.36,21.26ZM2.94,3.13C6.48,2.74,14.42,2,21,2s14.47.79,18,1.18l1,13.93H2l1-13.93Zm39-1.61-.84-.11A197.93,197.93,0,0,0,21,0h0A197.37,197.37,0,0,0,.85,1.41L0,1.52V17.06H0v2.17c0,6.55.65,15,5.71,22.42A27,27,0,0,0,9.36,46h0l0,0A54.89,54.89,0,0,0,21,54h0a55.16,55.16,0,0,0,11.56-8l0,0h0a28,28,0,0,0,3.65-4.3c5.06-7.41,5.71-15.87,5.71-22.42v-.31h0V1.52Z"/><path class="cls-1" d="M71.94,17.07l-1.88.06-.1-.7,1-.2V10.51c0-1-.48-1.5-1.28-1.5a4.82,4.82,0,0,0-2.12.9l-.6.38v5.94l1.1.2-.1.7L66,17.07l-2.1.06-.1-.7,1.2-.2V4l-.72.12-4.06-.06V16.17l2.3.26-.1.7-3.24-.06-3.36.06-.1-.7,2.4-.26V4.05l-3,.06-.92,2.5h-.78V3.07l5.74,0,4.92,0,2.14-.24h.68V9.31l2.92-1.9c2.56,0,3,1,3,3.5v5.32l1.5.2-.1.7Z"/><path class="cls-1" d="M77.14,12c0,2.28,1.22,3.9,3.32,3.9a5.18,5.18,0,0,0,2.5-.84l.32.76a12.2,12.2,0,0,1-3.5,1.58,4.53,4.53,0,0,1-4.6-4.86c0-3,1.78-4.54,4.52-5.14,2.64,0,3.54,1.66,3.54,3.76V12Zm4-1c0-1.54-.3-2.6-1.84-2.6-1.22,0-2,1.14-2.16,2.8Z"/><path class="cls-1" d="M97.06,3.79l.1-.7,2.56.06,2.34-.06.1.7-1.7.26v8.16c0,2.6-1.06,4.34-5,5.26-3.94,0-5.34-2.12-5.34-5.3V4.05l-1.8-.26.1-.7,2.76.06,2.74-.06.1.7-1.7.26v8.42c0,2.48,1.06,3.9,3.34,3.9,2.08,0,3.24-1.4,3.24-4V4.05Z"/><path class="cls-1" d="M104.86,17.07l-2.3.06-.1-.7,1.4-.2V8.93l-1.4.12-.1-.7,2.4-.62.86-.06.1,1.68,3-1.94c2.56,0,3,.86,3,3.26v5.56l1.52.2-.1.7-2.3-.06-1.92.06-.1-.7,1-.2V10.51c0-1-.46-1.5-1.32-1.5a4,4,0,0,0-2.08.9l-.6.4v5.92l1.1.2-.1.7Z"/><path class="cls-1" d="M116.32,17.07l-2.3.06-.1-.7,1.4-.2V8.93l-1.4.12-.1-.7,2.4-.62,1-.08v8.58l1.5.2-.1.7Zm-1-13.76,1.44-.1.56.1.1,1.12-.22,1-1.42.12-.54-.12-.12-1.12Z"/><path class="cls-1" d="M124.34,15.83l2.42-7.24-.92-.2.1-.7,1.76.06,1.66-.06.1.7-1.28.2-3.28,8.22-1.46.6L120,8.59l-1.24-.2.1-.7,2.3.06,2.1-.06.1.7-1.32.2,2.18,5.86Z"/><path class="cls-1" d="M131.42,12c0,2.28,1.22,3.9,3.32,3.9a5.18,5.18,0,0,0,2.5-.84l.32.76a12.2,12.2,0,0,1-3.5,1.58,4.53,4.53,0,0,1-4.6-4.86c0-3,1.78-4.54,4.52-5.14,2.64,0,3.54,1.66,3.54,3.76V12Zm4-1c0-1.54-.3-2.6-1.84-2.6-1.22,0-2,1.14-2.16,2.8Z"/><path class="cls-1" d="M142,10.31l2.28-2.8h1.6v2H144.4a4.56,4.56,0,0,0-1.9,1.42l-.4.48v4.76l2.1.2-.1.76-2.9-.06-2.24.06-.1-.7,1.4-.2V8.93l-1.4.12-.1-.7,2.4-.62.8-.06Z"/><path class="cls-1" d="M152.18,8.83a3.11,3.11,0,0,0-1.52-.44c-.78,0-1.52.42-1.52,1.18s.5,1,1.4,1.5l1.54.78c1.34.68,1.88,1.44,1.88,2.58,0,1.8-1.46,2.48-3.76,3a6.85,6.85,0,0,1-3-.9l-.38-2.26h1.28l.68,1.66a3,3,0,0,0,1.64.5,1.46,1.46,0,0,0,1.6-1.52c0-.78-.42-1.12-1.46-1.66l-1.58-.82a2.7,2.7,0,0,1-1.68-2.32c0-1.4,1.3-2.18,3.62-2.68a5.35,5.35,0,0,1,2.82.9v2h-1.06Z"/><path class="cls-1" d="M157.7,17.07l-2.3.06-.1-.7,1.4-.2V8.93l-1.4.12-.1-.7,2.4-.62,1-.08v8.58l1.5.2-.1.7Zm-1-13.76,1.44-.1.56.1.1,1.12-.22,1-1.42.12-.54-.12-.12-1.12Z"/><path class="cls-1" d="M167.62,21.82v-2h1.72l2-3-.8.24-3.36-8.42h-3v6.1c0,.58.22,1.2,1.06,1.2a4.22,4.22,0,0,0,1.76-.56l.34.68-2.52,1.38c-2.24,0-2.54-.8-2.54-2.6v-6H160.3V8.52l.7-.7h1.3V6.52l1.3-1.3h.52v2.5h6.3l.1.68-1.32.2,2.22,5.86.16,1.38,2.48-7.24-.92-.2.1-.7,1.76.06,1.66-.06.1.7-1.28.2-3.24,8.18-2.24,5Z"/><path class="cls-1" d="M189.94,12.21c0,3-1.82,4.7-4.92,5.2a4.46,4.46,0,0,1-4.46-4.78c0-3,1.82-4.7,4.92-5.22A4.48,4.48,0,0,1,189.94,12.21Zm-4.42,4.22c1.6,0,2.42-1.64,2.42-3.8,0-2.54-1.22-4.24-3-4.24s-2.42,1.64-2.42,3.82S183.74,16.43,185.52,16.43Z"/><path class="cls-1" d="M194.44,7.91h2.5v.94h-2.5v7.38l2.3.14-.1.76-3.1-.06-2.3.06-.1-.7,1.4-.2V8.85h-1.76V8.51l.6-.7h1.16v-.2a3.88,3.88,0,0,1,1.1-2.8l1.68-1.9h2.52v1.6h-2.6l-.38.54a3.76,3.76,0,0,0-.42,2.26v.6Z"/><path class="cls-1" d="M212.24,17.13,209,17.07l-3.36.06-.1-.7,2.4-.26V4.05l-3,0L204,6.63h-.78V3.09l5.74.06,5.76-.06V6.63H214L213,4.09l-3,0V16.17l2.3.26Z"/><path class="cls-1" d="M215.79,12c0,2.28,1.22,3.9,3.32,3.9a5.18,5.18,0,0,0,2.5-.84l.32.76a12.2,12.2,0,0,1-3.5,1.58,4.53,4.53,0,0,1-4.6-4.86c0-3,1.78-4.54,4.52-5.14,2.64,0,3.54,1.66,3.54,3.76V12Zm4-1c0-1.54-.3-2.6-1.84-2.6-1.22,0-2,1.14-2.16,2.8Z"/><path class="cls-1" d="M226.46,16.43l-.1.7-1.56-.06-2.06.06-.1-.7,1.4-.2,3-3.64-2.9-4-1.24-.2.1-.72,2.3.06,1.9-.06.1.72-.78.2L228,10.83l.16.52L230,8.61l-1-.2.1-.72,1.56.06,2.06-.06.1.72-1.44.2-2.64,3.2,3.14,4.42,1.24.2-.1.7-2.3-.06-1.9.06-.1-.7.82-.2-1.78-2.58-.16-.46-2.12,3Z"/><path class="cls-1" d="M237.79,7.41c2.52,0,3.16.64,3.16,3.18v3.92a2.43,2.43,0,0,0,.34,1.5h1l.08.7-2.58.5-.62-1.54-2.38,1.74c-1.72,0-2.94-1-2.94-2.56a2.93,2.93,0,0,1,.7-1.84l4.5-1.5v-1c0-1.2-.1-1.92-1.18-1.92a4.8,4.8,0,0,0-1.64.36l-.34,1.58h-1.72V9Zm1.27,4.9-2.9,1.2a1.52,1.52,0,0,0-.4,1.12c0,1,.58,1.38,1.16,1.38a2.37,2.37,0,0,0,1.3-.52l.84-.58Z"/><path class="cls-1" d="M248.58,8.83a3.11,3.11,0,0,0-1.52-.44c-.78,0-1.52.42-1.52,1.18s.5,1,1.4,1.5l1.54.78c1.34.68,1.88,1.44,1.88,2.58,0,1.8-1.46,2.48-3.76,3a6.85,6.85,0,0,1-3-.9l-.38-2.26h1.28l.68,1.66a3,3,0,0,0,1.64.5,1.46,1.46,0,0,0,1.6-1.52c0-.78-.42-1.12-1.46-1.66l-1.58-.82a2.7,2.7,0,0,1-1.68-2.32c0-1.4,1.3-2.18,3.62-2.68a5.35,5.35,0,0,1,2.82.9v2H249Z"/><path class="cls-1" d="M260.44,7.41c2.52,0,3.16.64,3.16,3.18v3.92a2.43,2.43,0,0,0,.34,1.5h1l.08.7-2.58.5-.62-1.54-2.38,1.74c-1.72,0-2.94-1-2.94-2.56a2.93,2.93,0,0,1,.7-1.84l4.5-1.5v-1c0-1.2-.1-1.92-1.18-1.92a4.8,4.8,0,0,0-1.64.36l-.34,1.58h-1.72V9Zm1.26,4.9-2.9,1.2a1.52,1.52,0,0,0-.4,1.12c0,1,.58,1.38,1.16,1.38a2.37,2.37,0,0,0,1.3-.52l.84-.58Z"/><path class="cls-1" d="M264.91,8.85V8.51l.7-.7h1.3V6.51l1.3-1.3h.52V8h3v.9h-3v5.86c0,.58.22,1.2,1.06,1.2a3.37,3.37,0,0,0,1.58-.48l.34.68-2.34,1.3c-2.24,0-2.54-.8-2.54-2.6v-6Z"/><path class="cls-1" d="M280.2,12.43l-1.3,3.74,1.74.26-.1.7-2.4-.06-2.14.06-.1-.7,1.56-.22,5-13,1.2-.34,5.22,13.3,1.56.22-.1.7-2.76-.06-2.64.06-.1-.7,1.7-.26-1.36-3.74Zm2.66-6.22-.14-1.08-2.2,6.36h4.26Z"/><path class="cls-1" d="M298.9,14.51a3.27,3.27,0,0,0,.24,1.5h1l.08.7-2.58.5-.56-1.62-2.9,1.82c-2.64,0-3.08-.94-3.08-3.26V8.93l-1.4.1-.1-.78,2.4-.52,1-.08v6.66c0,1,.44,1.5,1.42,1.5a4.86,4.86,0,0,0,2.18-1l.4-.26V8.93l-1.2.1-.1-.78,2.2-.52,1-.08Z"/><path class="cls-1" d="M306.52,8.83A3.11,3.11,0,0,0,305,8.39c-.78,0-1.52.42-1.52,1.18s.5,1,1.4,1.5l1.54.78c1.34.68,1.88,1.44,1.88,2.58,0,1.8-1.46,2.48-3.76,3a6.85,6.85,0,0,1-3-.9l-.38-2.26h1.28l.68,1.66a3,3,0,0,0,1.64.5,1.46,1.46,0,0,0,1.6-1.52c0-.78-.42-1.12-1.46-1.66l-1.58-.82a2.7,2.7,0,0,1-1.68-2.32c0-1.4,1.3-2.18,3.62-2.68a5.35,5.35,0,0,1,2.82.9v2H307Z"/><path class="cls-1" d="M308.93,8.85V8.51l.7-.7h1.3V6.51l1.3-1.3h.52V8h3v.9h-3v5.86c0,.58.22,1.2,1.06,1.2a3.37,3.37,0,0,0,1.58-.48l.34.68-2.34,1.3c-2.24,0-2.54-.8-2.54-2.6v-6Z"/><path class="cls-1" d="M319.31,17.07l-2.3.06-.1-.7,1.4-.2V8.93l-1.4.12-.1-.7,2.4-.62,1-.08v8.58l1.5.2-.1.7Zm-1-13.76,1.44-.1.56.1.1,1.12-.22,1-1.42.12-.54-.12-.12-1.12Z"/><path class="cls-1" d="M325,17.07l-2.3.06-.1-.7,1.4-.2V8.93l-1.4.12-.1-.7,2.4-.62.86-.06.1,1.68,3-1.94c2.56,0,3,.86,3,3.26v5.56l1.52.2-.1.7-2.3-.06-1.92.06-.1-.7,1-.2V10.51c0-1-.46-1.5-1.32-1.5a4,4,0,0,0-2.08.9l-.6.4v5.92l1.1.2-.1.7Z"/><path class="cls-2" d="M57.62,43.76a5.61,5.61,0,0,0,4.23,1.89c2.58,0,4.08-1.62,4.08-3.81s-1.32-3.21-3.12-4l-3.63-1.59c-2.16-.93-3.93-2.31-3.93-5,0-3.27,3-5.19,7.17-6.06A9.62,9.62,0,0,1,67.91,27V31h-1.5l-.87-2.73A4.45,4.45,0,0,0,62,26.81c-2.37,0-3.78,1.29-3.78,3.3,0,1.65,1.17,2.67,2.82,3.39L64.49,35c2.37,1,4.44,2.52,4.41,5.58,0,2.82-1.92,5.55-7.56,6.72a9.35,9.35,0,0,1-6.21-2l-.66-4h2.1Z"/><path class="cls-2" d="M79.4,34.28a2.56,2.56,0,0,0-1.74-.48c-2,0-3.6,2.28-3.6,5.55S75.8,45,78.74,45a6.55,6.55,0,0,0,3.39-1.26l.48,1.14a16.87,16.87,0,0,1-4.89,2.37c-3.84,0-6.69-2.52-6.69-7.14s3.45-7,7.14-7.86a7.15,7.15,0,0,1,4.14,1.5v3H80.09Z"/><path class="cls-2" d="M89.11,45.44l1.65.3-.15,1-2.85-.09-3.45.09-.15-1,2.1-.3V27.35l-2.1.06-.15-1,3.6-.93,1.5-.12v9.72l4.38-2.85c3.84,0,4.47,1.44,4.47,5.25v8l2.25.3-.15,1-3.45-.09-2.82.09-.15-1,1.47-.3V36.86c0-1.56-.72-2.25-1.92-2.25A7.23,7.23,0,0,0,90,36l-.9.57v8.91Z"/><path class="cls-2" d="M115.14,39.41c0,4.47-2.73,7.05-7.38,7.8-4,0-6.69-3.09-6.69-7.17,0-4.5,2.73-7,7.38-7.83C112.44,32.21,115.14,35.33,115.14,39.41Zm-6.63,6.33c2.4,0,3.63-2.46,3.63-5.7,0-3.81-1.83-6.36-4.44-6.36-2.43,0-3.63,2.46-3.63,5.73C104.07,42.83,105.84,45.74,108.51,45.74Z"/><path class="cls-2" d="M131.15,39.41c0,4.47-2.73,7.05-7.38,7.8-4,0-6.69-3.09-6.69-7.17,0-4.5,2.73-7,7.38-7.83C128.45,32.21,131.15,35.33,131.15,39.41Zm-6.63,6.33c2.4,0,3.63-2.46,3.63-5.7,0-3.81-1.83-6.36-4.44-6.36-2.43,0-3.63,2.46-3.63,5.73C120.08,42.83,121.85,45.74,124.52,45.74Z"/><path class="cls-2" d="M135.94,46.7l-3.45.09-.15-1,2.1-.3V27.38l-2.1.06-.15-1.05,3.6-.93,1.5-.12v20.1l2.25.3-.15,1Z"/><path class="cls-2" d="M162.31,39.41c0,4.47-2.73,7.05-7.38,7.8-4,0-6.69-3.09-6.69-7.17,0-4.5,2.73-7,7.38-7.83C159.61,32.21,162.31,35.33,162.31,39.41Zm-6.63,6.33c2.4,0,3.63-2.46,3.63-5.7,0-3.81-1.83-6.36-4.44-6.36-2.43,0-3.63,2.46-3.63,5.73C151.24,42.83,153,45.74,155.68,45.74Z"/><path class="cls-2" d="M168.87,33h3.75v1.41h-3.75V45.44l3.45.21-.15,1.14-4.65-.09-3.45.09-.15-1,2.1-.3V34.37h-2.64v-.51l.9-1H166v-.3a5.82,5.82,0,0,1,1.65-4.2l2.52-2.85H174v2.4h-3.9l-.57.81c-.42.57-.63,1.44-.63,3.39V33Z"/><path class="cls-2" d="M187.47,43.76c0,2.55-.27,3.75-1.35,5l-3,3.3h-2.7v-2.7h3.15l.27-.63c.45-1,.48-2,.48-4.77V27.17l-3.3-.39.15-1.05,4.74.09,4-.09.15,1.05-2.55.39V43.76Z"/><path class="cls-2" d="M204.69,39.41c0,4.47-2.73,7.05-7.38,7.8-4,0-6.69-3.09-6.69-7.17,0-4.5,2.73-7,7.38-7.83C202,32.21,204.69,35.33,204.69,39.41Zm-6.63,6.33c2.4,0,3.63-2.46,3.63-5.7,0-3.81-1.83-6.36-4.44-6.36-2.43,0-3.63,2.46-3.63,5.73C193.62,42.83,195.39,45.74,198.06,45.74Z"/><path class="cls-2" d="M219.54,42.86a4.9,4.9,0,0,0,.36,2.25h1.5l.12,1-3.87.75-.84-2.43-4.35,2.73c-4,0-4.62-1.41-4.62-4.89V34.49l-2.1.15-.15-1.17,3.6-.78,1.5-.12v10c0,1.56.66,2.25,2.13,2.25a7.3,7.3,0,0,0,3.27-1.5l.6-.39V34.49l-1.8.15-.15-1.17,3.3-.78,1.5-.12Z"/><path class="cls-2" d="M228,36.56l3.42-4.2h2.4v3h-2.22a6.84,6.84,0,0,0-2.85,2.13l-.6.72v7.14l3.15.3-.15,1.14-4.35-.09-3.36.09-.15-1,2.1-.3V34.49l-2.1.18-.15-1.05,3.6-.93,1.2-.09Z"/><path class="cls-2" d="M239.16,46.7l-3.45.09-.15-1,2.1-.3V34.49l-2.1.18-.15-1.05,3.6-.93,1.29-.09.15,2.52,4.44-2.91c3.84,0,4.47,1.29,4.47,4.89v8.34l2.28.3-.15,1L248,46.7l-2.88.09-.15-1,1.5-.3V36.86c0-1.56-.69-2.25-2-2.25A6.07,6.07,0,0,0,241.41,36l-.9.6v8.88l1.65.3-.15,1Z"/><path class="cls-2" d="M258.93,32.21c3.78,0,4.74,1,4.74,4.77v5.88a3.65,3.65,0,0,0,.51,2.25h1.5l.12,1-3.87.75L261,44.6l-3.57,2.61c-2.58,0-4.41-1.44-4.41-3.84a4.4,4.4,0,0,1,1-2.76l6.75-2.25v-1.5c0-1.8-.15-2.88-1.77-2.88a7.2,7.2,0,0,0-2.46.54l-.51,2.37H253.5V34.61Zm1.89,7.35-4.35,1.8a2.28,2.28,0,0,0-.6,1.68c0,1.53.87,2.07,1.74,2.07a3.55,3.55,0,0,0,1.95-.78l1.26-.87Z"/><path class="cls-2" d="M270.9,46.7l-3.45.09-.15-1,2.1-.3V27.38l-2.1.06-.15-1.05,3.6-.93,1.5-.12v20.1l2.25.3-.15,1Z"/><path class="cls-2" d="M279.72,46.7l-3.45.09-.15-1,2.1-.3V34.49l-2.1.18L276,33.62l3.6-.93,1.5-.12V45.44l2.25.3-.15,1Zm-1.5-20.64,2.16-.15.84.15.15,1.68L281,29.18l-2.13.18-.81-.18-.18-1.68Z"/><path class="cls-2" d="M292.8,34.34a4.66,4.66,0,0,0-2.28-.66c-1.17,0-2.28.63-2.28,1.77,0,1,.75,1.56,2.1,2.25l2.31,1.17c2,1,2.82,2.16,2.82,3.87,0,2.7-2.19,3.72-5.64,4.47a10.28,10.28,0,0,1-4.56-1.35l-.57-3.39h1.92l1,2.49a4.51,4.51,0,0,0,2.46.75,2.19,2.19,0,0,0,2.4-2.28c0-1.17-.63-1.68-2.19-2.49l-2.37-1.23a4.05,4.05,0,0,1-2.52-3.48c0-2.1,1.95-3.27,5.43-4a8,8,0,0,1,4.23,1.35v3h-1.59Z"/><path class="cls-2" d="M318,46.7l-2.85.09-.15-1,1.5-.3V36.86c0-1.56-.66-2.25-1.74-2.25A6,6,0,0,0,311.7,36l-.9.63v8.85l1.35.3-.15,1-2.55-.09-2.7.09-.15-1,1.35-.3V36.86c0-1.56-.66-2.25-1.74-2.25A6,6,0,0,0,303.15,36l-.9.63v8.85l1.5.3-.15,1-2.7-.09-3.45.09-.15-1,2.1-.3V34.49l-2.1.18-.15-1.05,3.6-.93L302,32.6l.15,2.49,4.14-2.88c2.91,0,4,.87,4.32,2.94l4.23-2.94c3.84,0,4.47,1.44,4.47,5.25v8l2.25.3-.15,1Z"/><path class="cls-2" d="M336.12,32.21c3.78,0,4.74,1,4.74,4.77v5.88a3.65,3.65,0,0,0,.51,2.25h1.5l.12,1-3.87.75-.93-2.31-3.57,2.61c-2.58,0-4.41-1.44-4.41-3.84a4.4,4.4,0,0,1,1.05-2.76L338,38.36v-1.5c0-1.8-.15-2.88-1.77-2.88a7.2,7.2,0,0,0-2.46.54l-.51,2.37h-2.58V34.61ZM338,39.56l-4.35,1.8a2.28,2.28,0,0,0-.6,1.68c0,1.53.87,2.07,1.74,2.07a3.55,3.55,0,0,0,1.95-.78l1.26-.87Z"/><path class="cls-2" d="M348.1,46.7l-3.45.09-.15-1,2.1-.3V34.49l-2.1.18-.15-1.05,3.6-.93,1.29-.09.15,2.52,4.44-2.91c3.84,0,4.47,1.29,4.47,4.89v8.34l2.28.3-.15,1L357,46.7l-2.88.09-.15-1,1.5-.3V36.86c0-1.56-.69-2.25-2-2.25A6.07,6.07,0,0,0,350.35,36l-.9.6v8.88l1.65.3-.15,1Z"/><path class="cls-2" d="M374.19,42.86a3.56,3.56,0,0,0,.51,2.19h1.68l.12,1.11-4,.75-.93-2.31-3.87,2.61c-3.81,0-6.24-2.85-6.24-7,0-4.86,3-7.41,7.35-8a8.34,8.34,0,0,1,2.55.81V27.35l-2.1.06-.15-1,3.6-.93,1.5-.12V42.86Zm-3.75.72.9-.72v-8a3.88,3.88,0,0,0-3-1.2c-2.4,0-3.93,2.19-3.93,5.73,0,3.33,1.32,5.37,3.12,5.37A4.87,4.87,0,0,0,370.44,43.58Z"/><path class="cls-2" d="M405.33,25.73l3.33.09,2.79-.09.15,1.05-2.55.39V45.35l2.4.39-.15,1-3.6-.09-4.35.09-.15-1,2.7-.39V31.64l.39-3.51L398.7,46.76h-1.86l-6-15.15-1.11-3.48V45.35l2.64.39-.24,1-3.21-.09-3.39.09-.15-1,2.4-.39V27.23l-2.55-.45.15-1.05,3.09.09,3.3-.09L398,41.6l.24,1.68Z"/><path class="cls-2" d="M415.76,39.11c0,3.42,1.83,5.85,5,5.85a7.76,7.76,0,0,0,3.75-1.26l.48,1.14a18.3,18.3,0,0,1-5.25,2.37c-3.63,0-6.9-2.58-6.9-7.29,0-4.44,2.67-6.81,6.78-7.71,4,0,5.31,2.49,5.31,5.64v1.26Zm6-1.5c0-2.31-.45-3.9-2.76-3.9-1.83,0-3,1.71-3.24,4.2Z"/><path class="cls-2" d="M439.64,42.86a3.56,3.56,0,0,0,.51,2.19h1.68l.12,1.11-4,.75L437,44.6l-3.87,2.61c-3.81,0-6.24-2.85-6.24-7,0-4.86,3-7.41,7.35-8a8.34,8.34,0,0,1,2.55.81V27.35l-2.1.06-.15-1,3.6-.93,1.5-.12Zm-3.75.72.9-.72v-8a3.88,3.88,0,0,0-3-1.2c-2.4,0-3.93,2.19-3.93,5.73,0,3.33,1.32,5.37,3.12,5.37A4.87,4.87,0,0,0,435.89,43.58Z"/><path class="cls-2" d="M447.27,46.7l-3.45.09-.15-1,2.1-.3V34.49l-2.1.18-.15-1.05,3.6-.93,1.5-.12V45.44l2.25.3-.15,1Zm-1.5-20.64,2.16-.15.84.15.15,1.68-.33,1.44-2.13.18-.81-.18-.18-1.68Z"/><path class="cls-2" d="M458.16,32.21c3.78,0,4.74,1,4.74,4.77v5.88a3.65,3.65,0,0,0,.51,2.25h1.5l.12,1-3.87.75-.93-2.31-3.57,2.61c-2.58,0-4.41-1.44-4.41-3.84a4.4,4.4,0,0,1,1.05-2.76l6.75-2.25v-1.5c0-1.8-.15-2.88-1.77-2.88a7.2,7.2,0,0,0-2.46.54l-.51,2.37h-2.58V34.61ZM460,39.56l-4.35,1.8a2.28,2.28,0,0,0-.6,1.68c0,1.53.87,2.07,1.74,2.07a3.55,3.55,0,0,0,1.95-.78l1.26-.87Z"/><path class="cls-2" d="M57.32,69.82l1.66.26-.2.7-2.14-.06-2.24.06v-.7L56,69.82l1.9-12-1.82-.4.2-.7,2.46.06,1.94-.06,2.24,10.84-.06,1.2,6-12,1.78.06,2.26-.06v.7l-1.74.26L69.22,69.82l1.56.26-.2.7-2.3-.06-2.8.06v-.7l1.84-.26,1.58-10,.64-2.26L62.9,70.76H61.68L59.36,59.44l-.18-1.84Z"/><path class="cls-2" d="M80.14,65a5.81,5.81,0,0,1-3.86,5.56l-1.22.46c-1.72,0-3.26-1.4-3.26-4a5.81,5.81,0,0,1,3.86-5.56l1.22-.46C78.6,61.06,80.14,62.46,80.14,65ZM73.7,66.8c0,2.24,1,3.1,2.14,3.3,1.82-.6,2.4-3.1,2.4-4.78,0-2.24-1.06-3.1-2.18-3.3C74.24,62.62,73.7,65.12,73.7,66.8Z"/><path class="cls-2" d="M89.58,65a5.81,5.81,0,0,1-3.86,5.56l-1.22.46c-1.72,0-3.26-1.4-3.26-4a5.81,5.81,0,0,1,3.86-5.56l1.22-.46C88,61.06,89.58,62.46,89.58,65ZM83.14,66.8c0,2.24,1,3.1,2.14,3.3,1.82-.6,2.4-3.1,2.4-4.78,0-2.24-1.06-3.1-2.18-3.3C83.68,62.62,83.14,65.12,83.14,66.8Z"/><path class="cls-2" d="M95.68,70.4l.22-1.18.36-.86-2.88,2.7c-1.38-.26-2.7-1.18-2.7-3.8a5.83,5.83,0,0,1,3.48-5.6l1.34-.6a8.18,8.18,0,0,1,1.78.4L98,57.64,96,58.18l-.24-.62,3.52-1.1.48.46L97.54,69.56l1.66-1,.34.5-2.84,2Zm-1.8-.84,2.3-1.92L97,62.86a6.09,6.09,0,0,0-2.5-.64,5.88,5.88,0,0,0-1.94,4.66A2.69,2.69,0,0,0,93.88,69.56Z"/><path class="cls-2" d="M104.26,70.64l-1.12.12-1.2-8.22-1.7.62-.3-.5,2.76-1.6,1.08.5.88,8.4L108,63.82l-1.32-1.7,1.72-1.06.78,1.06-.42,2.32-6.56,11H99.68l.32-1.84h1.52Z"/><path class="cls-2" d="M120.72,71.12c-3.44,0-5.6-2.36-5.6-6.16a8,8,0,0,1,5.6-8l1.68-.56a6.55,6.55,0,0,1,4.24,1.52l-.1,2.88h-1.06l-.42-1.94a6.59,6.59,0,0,0-3.62-1.38c-2.72,1.18-4.12,3.74-4.12,7.12,0,3.6,2,5.38,4.26,5.52a6.43,6.43,0,0,0,2.2-1.26L125,66.44h1.1l-.78,3.36Z"/><path class="cls-2" d="M135.58,65a5.81,5.81,0,0,1-3.86,5.56l-1.22.46c-1.72,0-3.26-1.4-3.26-4a5.81,5.81,0,0,1,3.86-5.56l1.22-.46C134,61.06,135.58,62.46,135.58,65Zm-6.44,1.76c0,2.24,1,3.1,2.14,3.3,1.82-.6,2.4-3.1,2.4-4.78,0-2.24-1.06-3.1-2.18-3.3C129.68,62.62,129.14,65.12,129.14,66.8Z"/><path class="cls-2" d="M136.79,58.18l-.24-.62,3.52-1.1.48.46-2.22,12.64,1.66-1,.34.5-2.84,2-1-.64,2.26-12.78Z"/><path class="cls-2" d="M142.07,58.18l-.24-.62,3.52-1.1.48.46-2.22,12.64,1.66-1,.34.5-2.84,2-1-.64L144,57.64Z"/><path class="cls-2" d="M152.76,68.3l.36.5a22.48,22.48,0,0,1-2.6,1.8l-.78.46c-2,0-3.3-1.5-3.3-3.68a6.22,6.22,0,0,1,4-5.9l1.12-.42c1.26.22,2.2.74,2.2,2.1a5.5,5.5,0,0,1-.36,1.72l-5,1.6a4.7,4.7,0,0,0,0,.52c0,1.78,1.12,2.56,2.06,2.58A16.54,16.54,0,0,0,152.76,68.3Zm-4.33-2.52,3.26-1.34a3.37,3.37,0,0,0,.2-1.08A1.19,1.19,0,0,0,150.81,62C149.37,62.62,148.69,64.2,148.43,65.78Z"/><path class="cls-2" d="M154.35,75.46l.28-1.64h3.68a4.07,4.07,0,0,0,1.46-2.58l.32-2,.34-.86-2.84,2.68c-1.38-.26-2.7-1.18-2.7-3.8a5.83,5.83,0,0,1,3.48-5.6l1.34-.6a8.67,8.67,0,0,1,3.4.94l-1.74,9.68c-.16.86-1,1.56-2.2,2.48l-1.74,1.3Zm3.75-5.9,2.28-1.84.88-4.8a4.86,4.86,0,0,0-2.52-.7,5.88,5.88,0,0,0-1.94,4.66A2.69,2.69,0,0,0,158.1,69.56Z"/><path class="cls-2" d="M170.44,68.3l.36.5a22.48,22.48,0,0,1-2.6,1.8l-.78.46c-2,0-3.3-1.5-3.3-3.68a6.22,6.22,0,0,1,4-5.9l1.12-.42c1.26.22,2.2.74,2.2,2.1a5.5,5.5,0,0,1-.36,1.72l-5,1.6a4.7,4.7,0,0,0,0,.52c0,1.78,1.12,2.56,2.06,2.58A16,16,0,0,0,170.44,68.3Zm-4.33-2.52,3.26-1.34a3.37,3.37,0,0,0,.2-1.08A1.19,1.19,0,0,0,168.49,62C167.05,62.62,166.37,64.2,166.11,65.78Z"/><path class="cls-2" d="M185.78,65a5.81,5.81,0,0,1-3.86,5.56l-1.22.46c-1.72,0-3.26-1.4-3.26-4a5.81,5.81,0,0,1,3.86-5.56l1.22-.46C184.24,61.06,185.78,62.46,185.78,65Zm-6.44,1.76c0,2.24,1,3.1,2.14,3.3,1.82-.6,2.4-3.1,2.4-4.78,0-2.24-1.06-3.1-2.18-3.3C179.88,62.62,179.34,65.12,179.34,66.8Z"/><path class="cls-2" d="M186.13,73.82a3.59,3.59,0,0,0,.82-1.66l1.68-9.6h-1.94l.1-.36.74-.66h1.28l.18-1.08a3.36,3.36,0,0,1,1.3-2.4l2.54-1.6h1.64L194.15,58h-2.48a3.35,3.35,0,0,0-.86,1.72l-.32,1.84h2.26l-.22,1h-2.22l-1.54,8.9a3.54,3.54,0,0,1-1.32,2.4L185,75.46h-1.4l.34-1.64Z"/><path class="cls-2" d="M204.17,71.12c-3.44,0-5.6-2.36-5.6-6.16a8,8,0,0,1,5.6-8l1.68-.56a6.55,6.55,0,0,1,4.24,1.52l-.1,2.88h-1.06l-.42-1.94a6.59,6.59,0,0,0-3.62-1.38c-2.72,1.18-4.12,3.74-4.12,7.12,0,3.6,2,5.38,4.26,5.52a6.43,6.43,0,0,0,2.2-1.26l1.18-2.38h1.1l-.78,3.36Z"/><path class="cls-2" d="M219,65a5.81,5.81,0,0,1-3.86,5.56l-1.22.46c-1.72,0-3.26-1.4-3.26-4a5.81,5.81,0,0,1,3.86-5.56l1.22-.46C217.5,61.06,219,62.46,219,65Zm-6.45,1.76c0,2.24,1,3.1,2.14,3.3,1.82-.6,2.4-3.1,2.4-4.78,0-2.24-1.06-3.1-2.18-3.3C213.13,62.62,212.59,65.12,212.59,66.8Z"/><path class="cls-2" d="M226.59,61.06a1.72,1.72,0,0,1,1.92,2.1l3-2.1a1.77,1.77,0,0,1,1.94,2.24l-1.12,6.26,1.66-1,.34.5-2.84,2-1-.64L231.63,64c.14-.76,0-1.34-.54-1.34a3.78,3.78,0,0,0-1.78.78l-.92.66-1.2,6.66h-1.7l1.2-6.76c.14-.76,0-1.34-.54-1.34a4,4,0,0,0-1.78.78l-1,.66-1.18,6.66h-1.7L222,62.44l-1.86.66-.22-.56,3.28-1.48.62.64-.18,1-.28.6Z"/><path class="cls-2" d="M241.91,61.06a1.72,1.72,0,0,1,1.92,2.1l3-2.1a1.77,1.77,0,0,1,1.94,2.24l-1.12,6.26,1.66-1,.34.5-2.84,2-1-.64L247,64c.14-.76,0-1.34-.54-1.34a3.78,3.78,0,0,0-1.78.78l-.92.66-1.2,6.66h-1.7L242,64c.14-.76,0-1.34-.54-1.34a4,4,0,0,0-1.78.78l-1,.66-1.18,6.66h-1.7l1.48-8.32-1.86.66-.22-.56,3.28-1.48.62.64-.18,1-.28.6Z"/><path class="cls-2" d="M250.69,63.1l-.22-.56,3.28-1.48.6.62-1.12,6.52c-.16.9.14,1.26.62,1.26a4.67,4.67,0,0,0,1.9-.92l.92-.62,1.12-6.56h1.7l-1.44,8.2,1.66-1,.34.5-2.84,2-.88-.56.16-1.16.28-.6-3.44,2.32a1.82,1.82,0,0,1-1.9-2.26l1.12-6.36Z"/><path class="cls-2" d="M268,64c.14-.76.06-1.34-.64-1.34a4,4,0,0,0-1.88.78l-1,.66-1.18,6.66h-1.7l1.48-8.32-1.86.66-.22-.56,3.28-1.48.62.64-.18,1-.28.6,3.42-2.2a1.77,1.77,0,0,1,1.94,2.24l-1.12,6.26,1.66-1,.34.5-2.84,2-1-.64Z"/><path class="cls-2" d="M271.85,63.1l-.22-.56,3.28-1.48.62.64-1.38,7.86,1.66-1,.34.5-2.84,2-1-.64,1.42-8Zm2.82-6.1.58-.1,1.12.1v1l-.34.86-.54.1-1.26-.1.08-1Z"/><path class="cls-2" d="M283.37,68.32l.38.48a29.66,29.66,0,0,1-2.58,1.76l-.8.5c-1.78,0-3.3-1.36-3.3-3.88a6,6,0,0,1,4.08-5.68l1.1-.44a5.73,5.73,0,0,1,2.16.72l-1,1.62a13.37,13.37,0,0,0-2.24-1.24A4.75,4.75,0,0,0,279,66.6c0,1.94,1,2.76,2.08,3A16.91,16.91,0,0,0,283.37,68.32Z"/><path class="cls-2" d="M292.27,69.56l1.66-1,.34.5-2.84,2-1-.64.2-1.18.34-.86-2.84,2.68c-1.32-.3-2.6-1.22-2.6-3.76a6,6,0,0,1,3.66-5.64l1.2-.6a13.86,13.86,0,0,1,3.24.84Zm-3.54,0,2.16-1.82.86-4.86a5.19,5.19,0,0,0-2.36-.64,5.92,5.92,0,0,0-2,4.68A2.88,2.88,0,0,0,288.73,69.54Z"/><path class="cls-2" d="M297.33,69.56l2.6-1.06.32.54-3.76,2-1-.56,1.36-7.94H295l.1-.34.74-.7H297l.26-1.4,1.44-1.28h.48l-.5,2.78h2.54l-.2.94h-2.5Z"/><path class="cls-2" d="M301.85,63.1l-.22-.56,3.28-1.48.62.64-1.38,7.86,1.66-1,.34.5-2.84,2-1-.64,1.42-8Zm2.82-6.1.58-.1,1.12.1v1l-.34.86-.54.1-1.26-.1.08-1Z"/><path class="cls-2" d="M315.41,65a5.81,5.81,0,0,1-3.86,5.56l-1.22.46c-1.72,0-3.26-1.4-3.26-4a5.81,5.81,0,0,1,3.86-5.56l1.22-.46C313.87,61.06,315.41,62.46,315.41,65ZM309,66.8c0,2.24,1,3.1,2.14,3.3,1.82-.6,2.4-3.1,2.4-4.78,0-2.24-1.06-3.1-2.18-3.3C309.51,62.62,309,65.12,309,66.8Z"/><path class="cls-2" d="M323.27,64c.14-.76.06-1.34-.64-1.34a4,4,0,0,0-1.88.78l-1,.66-1.18,6.66h-1.7l1.48-8.32-1.86.66-.22-.56,3.28-1.48.62.64-.18,1-.28.6,3.42-2.2a1.77,1.77,0,0,1,1.94,2.24L324,69.56l1.66-1,.34.5-2.84,2-1-.64Z"/></svg>